<svg width="48" height="49" viewBox="0 0 48 49" fill="#262626" xmlns="http://www.w3.org/2000/svg">
<path fill-rule="evenodd" clip-rule="evenodd" d="M21.4776 15.9271C20.6625 15.9271 20.041 16.5486 20.041 17.3638C20.041 17.7435 19.7332 18.0513 19.3535 18.0513C18.9738 18.0513 18.666 17.7435 18.666 17.3638C18.666 15.7892 19.9031 14.5521 21.4776 14.5521C23.0521 14.5521 24.2892 15.7892 24.2892 17.3638C24.2892 17.7435 23.9814 18.0513 23.6017 18.0513C23.222 18.0513 22.9142 17.7435 22.9142 17.3638C22.9142 16.5486 22.2927 15.9271 21.4776 15.9271Z"/>
<path fill-rule="evenodd" clip-rule="evenodd" d="M29.1112 15.9271C28.2961 15.9271 27.6746 16.5486 27.6746 17.3638C27.6746 17.7435 27.3668 18.0513 26.9871 18.0513C26.6074 18.0513 26.2996 17.7435 26.2996 17.3638C26.2996 15.7892 27.5367 14.5521 29.1112 14.5521C30.6857 14.5521 31.9228 15.7892 31.9228 17.3638C31.9228 17.3701 31.9229 17.377 31.9229 17.3844C31.9235 17.5114 31.9247 17.7879 31.7839 18.0695C31.6141 18.4091 31.2011 18.5468 30.8615 18.377C30.5278 18.2101 30.3891 17.8086 30.5454 17.4725C30.546 17.4662 30.5467 17.4565 30.5471 17.4419C30.5478 17.4212 30.5478 17.3987 30.5478 17.3638C30.5478 16.5486 29.9263 15.9271 29.1112 15.9271Z"/>
<path fill-rule="evenodd" clip-rule="evenodd" d="M36.7449 15.9271C35.9514 15.9271 35.3082 16.5703 35.3082 17.3638C35.3082 18.1572 35.9514 18.8004 36.7449 18.8004C37.5383 18.8004 38.1815 18.1572 38.1815 17.3638C38.1815 16.5703 37.5383 15.9271 36.7449 15.9271ZM33.9332 17.3638C33.9332 15.8109 35.192 14.5521 36.7449 14.5521C38.2977 14.5521 39.5565 15.8109 39.5565 17.3638C39.5565 18.9166 38.2977 20.1754 36.7449 20.1754C35.192 20.1754 33.9332 18.9166 33.9332 17.3638Z"/>
<path fill-rule="evenodd" clip-rule="evenodd" d="M7.40517 18.4496C6.32452 18.4496 5.4375 19.3366 5.4375 20.4173V35.0207C5.4375 37.3282 7.15437 39.2571 9.37285 39.5921V36.3483C9.37285 35.9686 9.68065 35.6608 10.0603 35.6608H29.9741C31.0548 35.6608 31.9418 34.7738 31.9418 33.6931V20.4173C31.9418 19.3366 31.0548 18.4496 29.9741 18.4496H7.40517ZM4.0625 20.4173C4.0625 18.5772 5.56513 17.0746 7.40517 17.0746H29.9741C31.8142 17.0746 33.3168 18.5772 33.3168 20.4173V33.6931C33.3168 35.5332 31.8142 37.0358 29.9741 37.0358H10.7478V40.3311C10.7478 40.7107 10.44 41.0186 10.0603 41.0186C6.75996 41.0186 4.0625 38.3211 4.0625 35.0207V20.4173Z"/>
<path d="M27.85 25.2629H21.8095C21.7431 25.2629 21.7431 25.2629 21.7431 25.1966V24.0017C21.7431 23.869 21.6103 23.7362 21.4776 23.7362H15.9017C15.7689 23.7362 15.6362 23.869 15.6362 24.0017V25.1966C15.6362 25.2629 15.6362 25.2629 15.5698 25.2629H11.3879C11.1888 25.2629 10.9896 25.3957 10.9232 25.5284L9.39652 28.6483C9.33015 28.7147 9.39652 28.8474 9.52928 28.8474H15.6362C15.7026 28.8474 15.7026 28.8474 15.7026 28.9138V30.1086C15.7026 30.2414 15.8353 30.3741 15.9681 30.3741H21.5439C21.6767 30.3741 21.8095 30.2414 21.8095 30.1086V28.9138C21.8095 28.8474 21.8095 28.8474 21.8758 28.8474H25.9914C26.1905 28.8474 26.3896 28.7147 26.456 28.5819L27.9827 25.5284C28.0491 25.3957 27.9827 25.2629 27.85 25.2629Z"/>
<path fill-rule="evenodd" clip-rule="evenodd" d="M14.6832 11.1242C14.6832 9.28413 16.1858 7.78149 18.0258 7.78149H40.5948C42.4348 7.78149 43.9375 9.28413 43.9375 11.1242V25.7276C43.9375 29.028 41.24 31.7255 37.9396 31.7255C37.5599 31.7255 37.2521 31.4177 37.2521 31.038V27.7427H35.2845C34.9048 27.7427 34.597 27.4349 34.597 27.0552C34.597 26.6755 34.9048 26.3677 35.2845 26.3677H37.9396C38.3193 26.3677 38.6271 26.6755 38.6271 27.0552V30.299C40.8456 29.964 42.5625 28.0351 42.5625 25.7276V11.1242C42.5625 10.0435 41.6755 9.15649 40.5948 9.15649H18.0258C16.9452 9.15649 16.0582 10.0435 16.0582 11.1242V15.1069C16.0582 15.4866 15.7504 15.7944 15.3707 15.7944C14.991 15.7944 14.6832 15.4866 14.6832 15.1069V11.1242Z"/>
</svg>