<svg width="48" height="49" viewBox="0 0 48 49" fill="#262626" xmlns="http://www.w3.org/2000/svg">
<path fill-rule="evenodd" clip-rule="evenodd" d="M16.9011 28.7536C17.1704 28.4902 17.6015 28.4926 17.8678 28.759L21.748 32.6392C21.8774 32.7686 21.9499 32.9442 21.9494 33.1272C21.9489 33.3102 21.8754 33.4855 21.7453 33.6141L13.624 41.6452C13.6178 41.6513 13.6115 41.6573 13.6051 41.6632C12.2562 42.8997 10.1224 42.9004 8.77424 41.5523C7.42291 40.201 7.42291 38.0512 8.77424 36.6998L8.7797 36.6944L8.77973 36.6944L16.9011 28.7536ZM9.74399 37.6746C8.93215 38.4891 8.93299 39.7665 9.74651 40.58C10.5611 41.3946 11.8498 41.3983 12.6671 40.6578L20.2869 33.1226L17.3763 30.212L9.74399 37.6746Z"/>
<path fill-rule="evenodd" clip-rule="evenodd" d="M41.5099 8.99714C41.7784 9.26563 41.7784 9.70093 41.5099 9.96941L31.3132 20.1662C31.0447 20.4347 30.6094 20.4347 30.3409 20.1662C30.0724 19.8977 30.0724 19.4624 30.3409 19.1939L40.5377 8.99714C40.8061 8.72866 41.2414 8.72866 41.5099 8.99714Z"/>
<path fill-rule="evenodd" clip-rule="evenodd" d="M10.9443 5.85111C13.9729 4.87416 17.4945 5.55571 19.9433 8.00449C22.2698 10.331 23.0989 13.6487 22.2265 16.6029L41.6904 35.9779C43.3801 37.6676 43.515 40.3594 41.7807 42.0937C40.0684 43.806 37.3772 43.806 35.6649 42.0937L16.192 22.6208C13.2595 23.4126 9.94072 22.6861 7.6012 20.3466C5.16395 17.9094 4.37004 14.3842 5.4542 11.3288C5.53374 11.1046 5.72347 10.9375 5.95585 10.8869C6.18824 10.8363 6.43027 10.9094 6.5958 11.0802L11.7947 16.4442L15.9583 12.2806L10.6693 6.99155C10.4999 6.82222 10.4309 6.57699 10.4871 6.34421C10.5432 6.11143 10.7164 5.92463 10.9443 5.85111ZM12.5101 6.88787L17.4167 11.7944C17.6852 12.0629 17.6852 12.4982 17.4167 12.7667L12.2732 17.9102C12.1429 18.0405 11.9659 18.113 11.7817 18.1116C11.5975 18.1101 11.4216 18.0348 11.2934 17.9026L6.4563 12.9119C6.06645 15.1676 6.79852 17.5994 8.57347 19.3743C10.6365 21.4374 13.6119 22.0192 16.1781 21.1914C16.4236 21.1122 16.6928 21.1771 16.8753 21.3596L36.6372 41.1214C37.8125 42.2967 39.6331 42.2967 40.8084 41.1214C41.9615 39.9683 41.9161 38.1485 40.7185 36.9505C40.7184 36.9504 40.7186 36.9507 40.7185 36.9505L20.9574 17.2797C20.769 17.0922 20.7056 16.813 20.7945 16.5625C21.6955 14.0232 21.0456 11.0514 18.9711 8.97676C17.2086 7.21429 14.7803 6.5329 12.5101 6.88787Z"/>
</svg>