<svg width="48" height="49" viewBox="0 0 48 49" fill="#262626" xmlns="http://www.w3.org/2000/svg">
<path d="M8.41666 39.9833L10.6179 31.98C9.25956 29.6373 8.54583 26.9816 8.54714 24.2584C8.55105 15.7447 15.5122 8.81665 24.0652 8.81665C28.2158 8.81795 32.112 10.4269 35.0426 13.3462C37.9719 16.2655 39.5846 20.1457 39.5833 24.2727C39.5794 32.7877 32.6183 39.7158 24.0652 39.7158C21.4687 39.7145 18.9099 39.0665 16.6435 37.8354L8.41666 39.9833ZM17.0245 35.0395C19.2113 36.3316 21.299 37.1056 24.06 37.1069C31.1686 37.1069 36.9594 31.3489 36.9633 24.2701C36.9659 17.1771 31.2025 11.4269 24.0704 11.4243C16.9566 11.4243 11.1698 17.1823 11.1672 24.2597C11.1659 27.1491 12.0166 29.3126 13.4454 31.5761L12.1419 36.3134L17.0245 35.0395ZM31.8823 27.9439C31.7858 27.7829 31.5274 27.6868 31.1386 27.4933C30.7511 27.2998 28.8447 26.3661 28.4885 26.2375C28.1336 26.109 27.8753 26.044 27.6156 26.431C27.3573 26.8167 26.6135 27.6868 26.3878 27.9439C26.1621 28.201 25.935 28.2335 25.5475 28.04C25.16 27.8465 23.91 27.44 22.429 26.1245C21.2769 25.1012 20.4979 23.8377 20.2721 23.4507C20.0464 23.065 20.2487 22.8559 20.4418 22.6637C20.6166 22.491 20.8293 22.2131 21.0237 21.9872C21.2207 21.7638 21.2847 21.6028 21.4152 21.3444C21.5443 21.0872 21.4804 20.8613 21.3825 20.6678C21.2847 20.4756 20.5096 18.5757 20.1873 17.803C19.8716 17.0511 19.5519 17.1524 19.3144 17.1407L18.5707 17.1278C18.3123 17.1278 17.8922 17.2239 17.5373 17.6108C17.1824 17.9978 16.1803 18.9302 16.1803 20.8301C16.1803 22.73 17.5699 24.5649 17.763 24.822C17.9574 25.0792 20.4966 28.9776 24.3862 30.6489C25.3113 31.0463 26.0342 31.2839 26.5966 31.4618C27.5256 31.7553 28.3711 31.7138 29.0392 31.6151C29.7842 31.5047 31.333 30.6814 31.6566 29.7801C31.9802 28.8776 31.9802 28.1049 31.8823 27.9439Z"/>
</svg>