<svg width="48" height="49" viewBox="0 0 48 49" fill="#262626" xmlns="http://www.w3.org/2000/svg">
<path fill-rule="evenodd" clip-rule="evenodd" d="M18.3433 10.7718C17.7799 10.7705 17.2261 10.9178 16.7379 11.1989C16.2502 11.4798 15.8451 11.8842 15.5634 12.3715C15.5631 12.372 15.5628 12.3725 15.5625 12.373L11.4725 19.5485C11.3456 19.7711 11.1091 19.9086 10.8528 19.9086H6.93705C6.78009 19.9086 6.62953 19.9709 6.51848 20.082C6.40744 20.193 6.34508 20.3436 6.34508 20.5005V22.5171C6.34504 22.6065 6.36526 22.6951 6.40423 22.7756C6.44317 22.856 6.49985 22.9266 6.57004 22.9821L8.68452 24.6528C8.85572 24.7881 8.95559 24.9943 8.95559 25.2125V36.1636C8.95559 36.6668 9.15547 37.1493 9.51127 37.5051C9.86709 37.8609 10.3497 38.0608 10.8528 38.0608H13.4633C13.9665 38.0608 14.4491 37.8609 14.8049 37.5051C15.1607 37.1493 15.3606 36.6668 15.3606 36.1636V33.5531C15.3606 33.1592 15.6799 32.8398 16.0738 32.8398H31.9262C32.3201 32.8398 32.6394 33.1592 32.6394 33.5531V36.1636C32.6394 36.6668 32.8393 37.1493 33.1951 37.5051C33.5509 37.8609 34.0335 38.0608 34.5367 38.0608H37.1472C37.6503 38.0608 38.1329 37.8609 38.4887 37.5051C38.8445 37.1493 39.0444 36.6668 39.0444 36.1636V25.2125C39.0444 24.9943 39.1443 24.7881 39.3155 24.6528L41.43 22.9821C41.5001 22.9267 41.5568 22.8561 41.5958 22.7756C41.6347 22.6951 41.6549 22.6068 41.6549 22.5174V20.5005C41.6549 20.3435 41.5926 20.193 41.4815 20.082C41.3705 19.971 41.2199 19.9086 41.0629 19.9086H37.1472C36.8911 19.9086 36.6547 19.7713 36.5277 19.5489L32.431 12.373C32.4307 12.3726 32.4304 12.3721 32.4302 12.3717C32.1485 11.8843 31.7433 11.4798 31.2556 11.1989C30.7674 10.9178 30.2136 10.7705 29.6501 10.7718L29.6485 10.7718H18.345L18.3433 10.7718ZM18.3458 9.34523C17.5317 9.3435 16.7316 9.55642 16.0261 9.96267C15.3203 10.3691 14.7343 10.9545 14.3271 11.6598L14.3251 11.6632L10.4384 18.482H6.93705C6.40167 18.482 5.88828 18.6947 5.50975 19.0732C5.13123 19.4518 4.91852 19.9652 4.91852 20.5005L4.91852 22.5169C4.91844 22.8217 4.9874 23.1228 5.1202 23.3971C5.25306 23.6716 5.44637 23.9124 5.68557 24.1014L7.52903 25.558V36.1636C7.52903 37.0451 7.87922 37.8905 8.50254 38.5138C9.12586 39.1372 9.97127 39.4874 10.8528 39.4874H13.4633C14.3449 39.4874 15.1903 39.1372 15.8136 38.5138C16.4369 37.8905 16.7871 37.0451 16.7871 36.1636V34.2664H31.2129V36.1636C31.2129 37.0451 31.5631 37.8905 32.1864 38.5138C32.8097 39.1372 33.6551 39.4874 34.5367 39.4874H37.1472C38.0287 39.4874 38.8741 39.1372 39.4975 38.5138C40.1208 37.8905 40.471 37.0451 40.471 36.1636V25.558L42.3144 24.1014C42.5537 23.9123 42.747 23.6715 42.8798 23.3971C43.0126 23.1228 43.0816 22.822 43.0815 22.5171C43.0815 22.5171 43.0815 22.5172 43.0815 22.5171V20.5005C43.0815 19.9652 42.8688 19.4518 42.4903 19.0732C42.1117 18.6947 41.5983 18.482 41.0629 18.482H37.5613L33.6681 11.6627L33.6664 11.6598C33.2592 10.9545 32.6732 10.3691 31.9674 9.96267C31.2619 9.55641 30.4617 9.3435 29.6477 9.34523C29.6474 9.34523 29.648 9.34522 29.6477 9.34523"/>
<path d="M23.429 26.4003C21.6669 26.1131 20.5704 24.9449 20.5704 23.3917V23.2547H22.6589V23.4505C22.6589 24.1945 23.2593 24.697 24.2904 24.697C25.0932 24.697 25.7327 24.3707 25.7327 23.7507C25.7327 23.1307 25.1193 22.8435 23.5921 22.5172C22.065 22.1909 20.7205 21.5643 20.7205 19.7957C20.7205 18.2555 21.7517 17.2505 23.429 17.0286V15.6842H25.0083V17.0612C26.6138 17.3223 27.658 18.3665 27.658 19.6717V19.9067H25.6413V19.7239C25.6413 19.0713 24.9887 18.6667 24.186 18.6667C23.3833 18.6667 22.809 19.0126 22.809 19.6196C22.809 20.2265 23.2723 20.4418 24.4992 20.7029C26.2026 21.0749 27.8538 21.5839 27.8538 23.5875C27.8538 25.1538 26.7769 26.1981 25.0083 26.3938V27.8231H23.429V26.4003Z"/>
</svg>